<?xml version="1.0" encoding="UTF-8"?>
<!--
  BBL Mieterportal — icon sprite

  Single source for every icon used in the portal chrome and views.
  Mostly vendored from `swiss/designsystem` (filled-glyph CD style under
  designsystem/app/assets/icons/*.svg, MIT). A small set is portal-drawn
  for metaphors the federal set doesn't ship (paperclip, shield, ruler,
  comment-dots, half-circle, square, return/enter arrow, decorative
  data-quality dots).

  Usage:
    <svg class="inline-icon" aria-hidden="true">
      <use href="assets/icons.svg#icon-search"/>
    </svg>

  Or via the `icon(name)` helper in js/lib.js. Sizing comes from the
  consumer (.inline-icon = 16px square; override per-call as needed).
  Colour inherits via `currentColor` on every path.

  Audit reference: DS-T1 (icon-set vendor-in).
-->
<svg xmlns="http://www.w3.org/2000/svg" style="display:none" aria-hidden="true">

  <!-- ── DS-vendored (filled-glyph, federal CD style) ──────────────────── -->

  <symbol id="icon-search" viewBox="0 0 24 24">
    <path fill="currentColor" d="m13.3 12.8c1.9-2.2 1.7-5.6-.5-7.5s-5.6-1.7-7.5.5-1.7 5.6.5 7.5c2 1.7 4.9 1.7 6.9 0l6 6 .5-.5zm-4 1c-2.5 0-4.5-2-4.5-4.5s2-4.5 4.5-4.5 4.5 2 4.5 4.5-2 4.5-4.5 4.5z"/>
  </symbol>

  <symbol id="icon-check" viewBox="0 0 24 24">
    <path fill="currentColor" d="m9.772 17.729-4.913-4.912.531-.531 4.382 4.383 9.382-9.383.531.531z"/>
  </symbol>

  <symbol id="icon-x" viewBox="0 0 24 24">
    <path fill="currentColor" d="m17.153 7.066-4.8 4.801-4.779-4.779-.53.531 4.779 4.778-4.757 4.756.531.531 4.756-4.757 4.778 4.779.531-.53-4.779-4.779 4.801-4.8z"/>
  </symbol>

  <symbol id="icon-xMark" viewBox="0 0 24 24">
    <path fill="currentColor" d="m17.153 7.066-4.8 4.801-4.779-4.779-.53.531 4.779 4.778-4.757 4.756.531.531 4.756-4.757 4.778 4.779.531-.53-4.779-4.779 4.801-4.8z"/>
  </symbol>

  <symbol id="icon-xCircle" viewBox="0 0 24 24">
    <path fill="currentColor" d="m12.375 4.07568a8.29151 8.29151 0 1 0 8.291 8.291 8.30111 8.30111 0 0 0 -8.291-8.291zm0 15.833a7.54151 7.54151 0 1 1 7.5415-7.542 7.5502 7.5502 0 0 1 -7.5415 7.54201z"/>
    <path fill="currentColor" d="m15.699 8.53-3.315 3.315-3.3-3.3-.53.531 3.3 3.299-3.284 3.284.53.53 3.284-3.283 3.299 3.299.53-.531-3.299-3.299 3.315-3.315z"/>
  </symbol>

  <symbol id="icon-chevronLeft" viewBox="0 0 24 24">
    <path fill="currentColor" d="m14.733 5.704-3.85 6.669 3.85 6.669-.649.375-4.067-7.044 4.067-7.044z"/>
  </symbol>

  <symbol id="icon-chevronRight" viewBox="0 0 24 24">
    <path fill="currentColor" d="m10.017 19.042 3.85-6.669-3.85-6.669.649-.375 4.067 7.044-4.067 7.044z"/>
  </symbol>

  <symbol id="icon-chevronDown" viewBox="0 0 24 24">
    <path fill="currentColor" d="m5.706 10.015 6.669 3.85 6.669-3.85.375.649-7.044 4.067-7.044-4.067z"/>
  </symbol>

  <symbol id="icon-chevronUp" viewBox="0 0 24 24">
    <path fill="currentColor" d="m19.044 14.731-6.669-3.85-6.669 3.85-.375-.649 7.044-4.067 7.044 4.067z"/>
  </symbol>

  <symbol id="icon-download" viewBox="0 0 24 24">
    <path fill="currentColor" d="m19.419 13.698-.375-.649-6.294 3.634v-12.228h-.75v12.228l-6.294-3.634-.375.649 7.044 4.067z"/>
    <path fill="currentColor" d="m6.00576 19.91649h12.76855v.75h-12.76855z"/>
  </symbol>

  <symbol id="icon-document" viewBox="0 0 24 24">
    <path fill="currentColor" d="m9.77027 4.0835v.01709l-4.13127 5.68603h-.0235v10.88038h13.519v-16.5835zm0 1.29248v4.41064h-3.20484zm8.61425 14.541h-12.01904v-9.38036h4.15479v-5.70312h7.86425z"/>
  </symbol>

  <symbol id="icon-video" viewBox="0 0 24 24">
    <path fill="currentColor" d="m9.77027 4.11312v.01806l-4.13127 5.68506h-.0235v10.88037h13.519v-16.58349zm.75.75h7.86425v6.36718h-12.01904v-.66406h4.15479zm-4.0608 7.11718h.65953v.72559h-.65953zm1.596 0h.65949v.72559h-.65954zm1.596 0h.65948v.72559h-.65958zm1.596 0h.65948v.72559h-.65948zm1.59594 0h.65949v.72559h-.65949zm1.59595 0h.65942v.72559h-.65942zm1.59589 0h.65948v.72559h-.65963zm1.59594 0h.65949v.72559h-.65968zm.65949 7.96631h-.65968v-.73h.65949zm-1.596 0h-.65958v-.73h.65948zm-1.59595 0h-.65942v-.73h.65942zm-1.59588 0h-.65949v-.73h.65949zm-1.596 0h-.65948v-.73h.65948zm-1.596 0h-.65948v-.73h.65948zm-1.59594 0h-.65949v-.73h.65949zm-1.59595 0h-.65949v-.73h.65953zm-.75348-1.22461v-5.51709h12.019v5.51709zm3.40479-13.31592v4.41016h-3.20484z"/>
    <path fill="currentColor" d="m11.47486 13.42659v5.07324l2.543-2.53662zm.75 1.80762.731.729-.73095.729z"/>
  </symbol>

  <symbol id="icon-grid" viewBox="0 0 24 24">
    <path fill="currentColor" d="m12.375 14.66691a2.29187 2.29187 0 1 1 2.2915-2.292 2.2946 2.2946 0 0 1 -2.2915 2.292zm0-3.83374a1.54187 1.54187 0 1 0 1.5415 1.54175 1.54373 1.54373 0 0 0 -1.5415-1.54175z"/>
    <path fill="currentColor" d="m7.14111 9.433a2.29175 2.29175 0 1 1 2.292-2.29175 2.29414 2.29414 0 0 1 -2.292 2.29175zm0-3.8335a1.54175 1.54175 0 1 0 1.542 1.54175 1.54332 1.54332 0 0 0 -1.542-1.54172z"/>
    <path fill="currentColor" d="m12.375 9.433a2.29175 2.29175 0 1 1 2.292-2.29175 2.29456 2.29456 0 0 1 -2.292 2.29175zm0-3.8335a1.54175 1.54175 0 1 0 1.542 1.54175 1.54373 1.54373 0 0 0 -1.542-1.54172z"/>
    <path fill="currentColor" d="m17.60889 9.433a2.29175 2.29175 0 1 1 2.2915-2.29175 2.29456 2.29456 0 0 1 -2.2915 2.29175zm0-3.8335a1.54175 1.54175 0 1 0 1.5415 1.54175 1.54374 1.54374 0 0 0 -1.5415-1.54172z"/>
    <path fill="currentColor" d="m7.14111 14.66691a2.29187 2.29187 0 1 1 2.292-2.292 2.29418 2.29418 0 0 1 -2.292 2.292zm0-3.83374a1.54187 1.54187 0 1 0 1.542 1.54175 1.54332 1.54332 0 0 0 -1.542-1.54175z"/>
    <path fill="currentColor" d="m17.60889 14.66691a2.29187 2.29187 0 1 1 2.2915-2.292 2.2946 2.2946 0 0 1 -2.2915 2.292zm0-3.83374a1.54187 1.54187 0 1 0 1.5415 1.54175 1.54374 1.54374 0 0 0 -1.5415-1.54175z"/>
    <path fill="currentColor" d="m7.14111 19.90056a2.29188 2.29188 0 1 1 2.292-2.29175 2.29414 2.29414 0 0 1 -2.292 2.29175zm0-3.83375a1.54188 1.54188 0 1 0 1.542 1.542 1.54338 1.54338 0 0 0 -1.542-1.542z"/>
    <path fill="currentColor" d="m12.375 19.90056a2.29188 2.29188 0 1 1 2.292-2.29175 2.29456 2.29456 0 0 1 -2.292 2.29175zm0-3.83375a1.54188 1.54188 0 1 0 1.542 1.542 1.54379 1.54379 0 0 0 -1.542-1.542z"/>
    <path fill="currentColor" d="m17.60889 19.90056a2.29188 2.29188 0 1 1 2.2915-2.29175 2.29456 2.29456 0 0 1 -2.2915 2.29175zm0-3.83375a1.54188 1.54188 0 1 0 1.5415 1.542 1.5438 1.5438 0 0 0 -1.5415-1.542z"/>
  </symbol>

  <symbol id="icon-list" viewBox="0 0 24 24">
    <circle fill="currentColor" cx="5.20794" cy="7.78174" r=".875"/>
    <circle fill="currentColor" cx="5.20794" cy="12.37549" r=".875"/>
    <circle fill="currentColor" cx="5.20794" cy="16.96826" r=".875"/>
    <path fill="currentColor" d="m7.76556 7.40674h11.74463v.75h-11.74463z"/>
    <path fill="currentColor" d="m7.76556 12.00049h11.74463v.75h-11.74463z"/>
    <path fill="currentColor" d="m7.76556 16.59326h11.74463v.75h-11.74463z"/>
  </symbol>

  <symbol id="icon-map" viewBox="0 0 24 24">
    <path fill="currentColor" d="m14.85394 7.19678-4.91553-2.544-5.10596 2.74422v12.75583l5.1128-2.748 4.91845 2.5459 5.02-2.74707v-12.75981zm-4.53711-1.50391 4.167 2.15674v11.06006l-4.167-2.15649zm-4.73438 2.15332 3.98438-2.14233v11.05273l-3.98438 2.14234zm13.55127 8.91211-3.8999 2.13477v-11.04932l3.8999-2.13428z"/>
  </symbol>

  <symbol id="icon-mapMarker" viewBox="0 0 24 24">
    <path fill="currentColor" d="m12.3916 20.99951-5.25976-8.42578a5.87365 5.87365 0 1 1 10.53857-.0332zm0-16.167a5.1305 5.1305 0 0 0 -5.125 5.125 5.07366 5.07366 0 0 0 .52 2.25293l4.605 7.373 4.624-7.40625a5.07217 5.07217 0 0 0 .501-2.21972 5.1305 5.1305 0 0 0 -5.125-5.12495zm0 7.418a2.292 2.292 0 1 1 2.292-2.292 2.29476 2.29476 0 0 1 -2.292 2.29198zm0-3.834a1.542 1.542 0 1 0 1.542 1.542 1.54363 1.54363 0 0 0 -1.542-1.54201z"/>
  </symbol>

  <symbol id="icon-tool" viewBox="0 0 24 24">
    <path fill="currentColor" d="m16.72339 13.05184a3.59122 3.59122 0 0 0 -.45227.04565l-4.62226-4.62255a3.5992 3.5992 0 0 0 .04523-.44751 3.66554 3.66554 0 0 0 -3.66109-3.66114 3.58231 3.58231 0 0 0 -1.03662.166l-.6045.17871 2.28121 2.28127-1.60351 1.60352-2.30078-2.29979-.19287.57324a3.59135 3.59135 0 0 0 -.20362 1.15821 3.66512 3.66512 0 0 0 3.66069 3.66111c.109 0 .21179-.02283.31842-.03223l4.74267 4.74219c-.00915.10547-.0318.20679-.0318.31445a3.66554 3.66554 0 0 0 3.66114 3.66114 3.58242 3.58242 0 0 0 1.03662-.166l.60449-.17871-2.28076-2.28125 1.60351-1.60352 2.30127 2.30078.19239-.57421a3.61248 3.61248 0 0 0 .20305-1.1582 3.66512 3.66512 0 0 0 -3.66061-3.66116zm-11.60108-5.02441a2.491 2.491 0 0 1 .01856-.29883l1.92871 1.92773 2.66406-2.66406-1.86964-1.86914a2.87522 2.87522 0 0 1 3.08008 2.9043 2.91089 2.91089 0 1 1 -5.82178 0zm4.10569 3.44409a3.65932 3.65932 0 0 0 2.2153-2.14063l3.97265 3.973a3.66013 3.66013 0 0 0 -2.13769 2.2174zm10.38748 5.54028-1.92823-1.92773-2.66406 2.66406 1.86914 1.86914a2.8766 2.8766 0 0 1 -3.08008-2.9043 2.91089 2.91089 0 1 1 5.82178 0 2.50557 2.50557 0 0 1 -.01855.29883z"/>
  </symbol>

  <symbol id="icon-truck" viewBox="0 0 24 24">
    <path fill="currentColor" d="m16.17962 12.92139a2.292 2.292 0 1 0 2.29151 2.292 2.29476 2.29476 0 0 0 -2.29151-2.292zm0 3.834a1.542 1.542 0 1 1 1.54151-1.542 1.54362 1.54362 0 0 1 -1.54151 1.54198z"/>
    <path fill="currentColor" d="m6.769 12.92139a2.292 2.292 0 1 0 2.2915 2.292 2.29476 2.29476 0 0 0 -2.2915-2.292zm0 3.834a1.542 1.542 0 1 1 1.5415-1.542 1.54362 1.54362 0 0 1 -1.5415 1.54198z"/>
    <path fill="currentColor" d="m8.95343 13.83838a2.56633 2.56633 0 0 1 .31836.75h4.40466a2.56606 2.56606 0 0 1 .31836-.75z"/>
    <path fill="currentColor" d="m4.81634 7.99463h9.98828v5.03412a2.56551 2.56551 0 0 1 .75-.3183v-5.46582h-11.48828v7.34375h.19946a2.5659 2.5659 0 0 1 .55054-1.05591z"/>
    <path fill="currentColor" d="m17.88324 7.99365h-2.07862v4.67a1.88 1.88 0 0 1 .75 0v-3.92h1.06592l.18946.15135h-1.00538v2.74121h3.11475v3.20215h-1.19a1.88 1.88 0 0 1 0 .75h1.94049v-5.36814zm2.03613 2.89258h-2.36475v-1.24123h1.19338l1.17139.93653z"/>
    <path fill="currentColor" d="m9.31872 14.83838a1.88 1.88 0 0 1 0 .75h4.31079a1.88 1.88 0 0 1 0-.75z"/>
  </symbol>

  <symbol id="icon-sparkles" viewBox="0 0 24 24">
    <path fill="currentColor" d="m17.54785 19.53174-5.17285-2.71974-5.17285 2.71974.98779-5.76074-4.18457-4.07911 5.7832-.84082 2.58643-5.24023 2.58643 5.24023 5.78369.84082-4.18506 4.07911zm-5.17285-3.56739 4.17676 2.19629-.79737-4.65136 3.37891-3.294-4.66992-.67871-2.08838-4.23042-2.08838 4.23047-4.66992.67871 3.37891 3.294-.79737 4.65136z"/>
  </symbol>

  <symbol id="icon-user" viewBox="0 0 24 24">
    <path fill="currentColor" d="m14.22209 11.83288h-3.69434a3.30972 3.30972 0 0 0 -3.30566 3.30567v5.23632h.75v-5.23632a2.55858 2.55858 0 0 1 2.55566-2.55567h3.69434a2.55858 2.55858 0 0 1 2.55566 2.55567v5.23632h.75v-5.23632a3.30972 3.30972 0 0 0 -3.30566-3.30567z"/>
    <path fill="currentColor" d="m12.37492 11.41687a3.7085 3.7085 0 1 0 -3.7085-3.709 3.713 3.713 0 0 0 3.7085 3.709zm0-6.667a2.9585 2.9585 0 1 1 -2.9585 2.958 2.96161 2.96161 0 0 1 2.9585-2.958z"/>
  </symbol>

  <symbol id="icon-phone" viewBox="0 0 24 24">
    <path fill="currentColor" d="m17.59383 19.90057a2.20469 2.20469 0 0 1 -.773-.14062l-.00293.00293-.24121-.10156a23.79852 23.79852 0 0 1 -11.34028-11.19922 3.79761 3.79761 0 0 1 -.40185-1.32031 2.29435 2.29435 0 0 1 2.2915-2.292h2.96143l1.666 2.80274-1.15282 2.10747a23.52986 23.52986 0 0 0 4.34766 4.38086l2.17578-1.17386 2.79345 1.68262-.03222 2.96289a2.29353 2.29353 0 0 1 -2.29151 2.28806zm-.93554-1.03808.24755.11719a1.55038 1.55038 0 0 0 2.2295-1.3711l.02783-2.53711-2.05957-1.24121-2.22412 1.2002-.19239-.14551a24.27475 24.27475 0 0 1 -4.83251-4.86816l-.14358-.19336 1.1792-2.15528-1.22947-2.06836h-2.53467a1.54321 1.54321 0 0 0 -1.5415 1.542 3.17515 3.17515 0 0 0 .3247.98828 23.0736 23.0736 0 0 0 10.74174 10.73925z"/>
  </symbol>

  <symbol id="icon-envelope" viewBox="0 0 24 24">
    <path fill="currentColor" d="m4.08325 5.61572v13.51905h16.5835v-13.51905zm15.42951.75-7.138 4.12061-7.13758-4.12061zm-14.67951 12.01905v-11.38623l7.54151 4.354 7.542-4.35449v11.38672z"/>
  </symbol>

  <symbol id="icon-globe" viewBox="0 0 24 24">
    <path fill="currentColor" d="m12.35809 4.0835a8.292 8.292 0 1 0 8.2915 8.292 8.30132 8.30132 0 0 0 -8.2915-8.292zm7.523 7.917h-3.23644a10.6381 10.6381 0 0 0 -.943-4.0376 8.26506 8.26506 0 0 0 1.80414-1.084 7.51275 7.51275 0 0 1 2.37531 5.12159zm-7.148-6.76709a8.35364 8.35364 0 0 1 1.92053 2.32373 7.52065 7.52065 0 0 1 -1.92053.34424zm.81109-.29736a7.49383 7.49383 0 0 1 3.37782 1.44921 7.53935 7.53935 0 0 1 -1.55823.90722 9.25541 9.25541 0 0 0 -1.81959-2.35648zm-1.56109.3247v2.63915a7.542 7.542 0 0 1 -1.88617-.34228 8.36322 8.36322 0 0 1 1.88617-2.29688zm-2.59558 2.03173a7.5023 7.5023 0 0 1 -1.5755-.9209 7.49329 7.49329 0 0 1 3.39575-1.44091 9.26262 9.26262 0 0 0 -1.82025 2.36181zm2.59558 1.35742v3.35059h-3.12809a9.89077 9.89077 0 0 1 .8906-3.76949 8.27315 8.27315 0 0 0 2.23749.4189zm0 4.10059v3.34912a8.28136 8.28136 0 0 0 -2.24445.41309 9.89154 9.89154 0 0 1 -.88422-3.76221zm0 4.09912v2.64939a8.364 8.364 0 0 1 -1.89509-2.3115 7.52085 7.52085 0 0 1 1.89509-.33789zm-.78522 2.96875a7.48853 7.48853 0 0 1 -3.40033-1.45068 7.53581 7.53581 0 0 1 1.5799-.917 9.26 9.26 0 0 0 1.82043 2.36768zm1.53522-.2915v-2.67627a7.54581 7.54581 0 0 1 1.9209.35107 8.35058 8.35058 0 0 1 -1.9209 2.3252zm2.62927-2.05811a7.50112 7.50112 0 0 1 1.54578.90723 7.49788 7.49788 0 0 1 -3.352 1.437 9.2738 9.2738 0 0 0 1.80622-2.34423zm-2.62927-1.36816v-3.3501h3.16235a9.88744 9.88744 0 0 1 -.89075 3.77734 8.272 8.272 0 0 0 -2.2716-.42724zm0-4.1001v-3.34912a8.286 8.286 0 0 0 2.27124-.41992 9.88615 9.88615 0 0 1 .8905 3.769zm-5.507-5.13574a8.26465 8.26465 0 0 0 1.82243 1.09765 10.64458 10.64458 0 0 0 -.94336 4.03809h-3.27008a7.51176 7.51176 0 0 1 2.39099-5.13574zm-2.391 5.88574h3.26952a10.64524 10.64524 0 0 0 .93616 4.0293 8.26443 8.26443 0 0 0 -1.82734 1.09472 7.5125 7.5125 0 0 1 -2.37835-5.12402zm12.65869 5.13232a8.27636 8.27636 0 0 0 -1.79285-1.084 10.64179 10.64179 0 0 0 .94434-4.04834h3.23583a7.51232 7.51232 0 0 1 -2.38733 5.13234z"/>
  </symbol>

  <symbol id="icon-share" viewBox="0 0 24 24">
    <path fill="currentColor" d="m17.59222 15.3169a2.28292 2.28292 0 0 0 -1.82794.92419l-6.36695-3.67639c.00531-.06348.01911-.12451.01911-.18921 0-.0625-.01349-.12134-.01843-.18262l6.45361-3.72558a2.27525 2.27525 0 1 0 -.38953-.64209l-6.25287 3.60974a2.29165 2.29165 0 1 0 -.00293 1.88635l6.2146 3.58838a2.26178 2.26178 0 0 0 -.12066.69922 2.29175 2.29175 0 1 0 2.292-2.292zm0-9.86524a1.542 1.542 0 1 1 -1.542 1.542 1.54321 1.54321 0 0 1 1.542-1.542zm-10.46777 8.46485a1.54151 1.54151 0 1 1 1.542-1.541 1.543 1.543 0 0 1 -1.542 1.541zm10.46777 5.23437a1.542 1.542 0 1 1 1.5415-1.542 1.54363 1.54363 0 0 1 -1.5415 1.542z"/>
  </symbol>

  <symbol id="icon-printer" viewBox="0 0 24 24">
    <path fill="currentColor" d="m17.24261 12.771a.875.875 0 1 0 -.875-.875.87606.87606 0 0 0 .875.875zm0-1a.12492.12492 0 0 1 .125.125c0 .13867-.25.13867-.25 0a.12492.12492 0 0 1 .125-.125z"/>
    <path fill="currentColor" d="m19.11761 10.021h-2.80371v-6.02051h-7.93262v6.02051h-2.78222v8.667h2.78271v2.06152h7.93213v-2.06152h2.80371zm-9.98633-5.27051h6.43262v5.27051h-6.43262zm.00049 15.249v-4.27049h6.43213v4.2705zm9.23584-2.06149h-2.05371v-2.209h.64844v-.75h-9.1875v.75h.60693v2.209h-2.03271v-7.167h12.01855z"/>
    <path fill="currentColor" d="m9.58197 16.9292h5.53125v.75h-5.53125z"/>
    <path fill="currentColor" d="m9.58197 18.31201h5.53125v.75h-5.53125z"/>
  </symbol>

  <symbol id="icon-external" viewBox="0 0 24 24">
    <path fill="currentColor" d="m14.46 4.85v.75h4.171l-5.99 5.988.531.531 5.988-5.989v4.17h.75v-5.45z"/>
    <path fill="currentColor" d="m18.118 19.151h-12.508v-12.508h4.701v-.75h-5.451v14.008h14.008v-5.451h-.75z"/>
  </symbol>

  <symbol id="icon-maximize" viewBox="0 0 24 24">
    <path fill="currentColor" d="m20.795 10.925-1.476-5.507-5.506-1.476-.195.725 4.673 1.252-5.651 5.65.53.531 5.65-5.65 1.25 4.669z"/>
    <path fill="currentColor" d="m11.58 12.63-5.651 5.651-1.253-4.677-.725.194 1.476 5.507 5.507 1.476.194-.724-4.664-1.25 5.646-5.647z"/>
  </symbol>

  <symbol id="icon-alertTriangle" viewBox="0 0 24 24">
    <path fill="currentColor" d="m11.36415 18.60742a1.07693 1.07693 0 0 1 .26855-.74414 1.01388 1.01388 0 0 1 .7959-.30078 1.02776 1.02776 0 0 1 .80078.30078 1.06258 1.06258 0 0 1 .27344.74414 1.02716 1.02716 0 0 1 -.27344.73438 1.04431 1.04431 0 0 1 -.80078.291 1.03 1.03 0 0 1 -.7959-.291 1.04075 1.04075 0 0 1 -.26855-.73438zm1.82617-3.1123h-1.63086l-.12695-10.18848h1.89449z"/>
  </symbol>

  <symbol id="icon-refresh" viewBox="0 0 24 24">
    <path fill="currentColor" d="m12.35184 19.91675a7.553 7.553 0 0 1 -7.12091-5.12061l2.42639.00965.00232-.75073-3.29578-.0116-1.65838 2.84766.64856.37817 1.20324-2.06848a8.29251 8.29251 0 0 0 15.902-1.078l-.7334-.1582a7.57653 7.57653 0 0 1 -7.37404 5.95214z"/>
    <path fill="currentColor" d="m12.35184 4.83277a7.56913 7.56913 0 0 1 7.118 5.10656l-2.34774.00267.00153.75073 3.29584-.00537 1.64367-2.85606-.65051-.37488-1.24451 2.16492a8.2896 8.2896 0 0 0 -15.92077.99266l.7334.1582a7.579 7.579 0 0 1 7.37109-5.93943z"/>
  </symbol>

  <symbol id="icon-info" viewBox="0 0 24 24">
    <path fill="currentColor" d="m11.32492 6.1479a1.08049 1.08049 0 0 1 .26856-.74219 1.00811 1.00811 0 0 1 .79589-.30273 1.02194 1.02194 0 0 1 .80079.30273 1.06615 1.06615 0 0 1 .27343.74219 1.03053 1.03053 0 0 1 -.27343.73242 1.04162 1.04162 0 0 1 -.80079.293 1.02733 1.02733 0 0 1 -.79589-.293 1.04412 1.04412 0 0 1 -.26856-.73242zm1.95313 13.3691h-1.80664v-10.56637h1.80664z"/>
  </symbol>

  <symbol id="icon-help" viewBox="0 0 24 24">
    <path fill="currentColor" d="m11.1384 15.4956a5.8703 5.8703 0 0 1 .26367-1.833 4.712 4.712 0 0 1 .99609-1.49121l1.2793-1.3164a2.951 2.951 0 0 0 .82031-1.98828 2.26657 2.26657 0 0 0 -.53711-1.60254 2.02378 2.02378 0 0 0 -1.5625-.58008 2.35265 2.35265 0 0 0 -1.60156.52734 1.78353 1.78353 0 0 0 -.60547 1.416h-1.80664a3.29377 3.29377 0 0 1 1.12793-2.5537 4.22054 4.22054 0 0 1 2.88574-.97168 3.9834 3.9834 0 0 1 2.876.98925 3.58713 3.58713 0 0 1 1.03027 2.71582 4.90855 4.90855 0 0 1 -1.582 3.36426l-1.06445 1.05274a3.28209 3.28209 0 0 0 -.71298 2.27148zm-.07813 3.10254a1.07693 1.07693 0 0 1 .26856-.74414 1.01381 1.01381 0 0 1 .7959-.30078 1.02774 1.02774 0 0 1 .80078.30078 1.06262 1.06262 0 0 1 .27343.74414 1.02719 1.02719 0 0 1 -.27343.73438 1.04432 1.04432 0 0 1 -.80078.291 1.03 1.03 0 0 1 -.7959-.291 1.04075 1.04075 0 0 1 -.26856-.73438z"/>
  </symbol>

  <!-- ── Portal-drawn (metaphors DS doesn't ship — outlined Lucide-style) ── -->

  <symbol id="icon-attachment" viewBox="0 0 24 24">
    <path d="m21 12-8.5 8.5a5 5 0 0 1 -7-7L14 5a3.5 3.5 0 1 1 5 5l-8.5 8.5a2 2 0 0 1 -3-3l7.5-7.5" fill="none" stroke="currentColor" stroke-width="2" stroke-linecap="round" stroke-linejoin="round"/>
  </symbol>

  <symbol id="icon-shield" viewBox="0 0 24 24">
    <path d="M12 22s8-4 8-10V5l-8-3-8 3v7c0 6 8 10 8 10z" fill="none" stroke="currentColor" stroke-width="2" stroke-linecap="round" stroke-linejoin="round"/>
  </symbol>

  <symbol id="icon-ruler" viewBox="0 0 24 24">
    <path d="M21.3 8.7 8.7 21.3a1 1 0 0 1 -1.4 0L2.7 16.7a1 1 0 0 1 0-1.4L15.3 2.7a1 1 0 0 1 1.4 0l4.6 4.6a1 1 0 0 1 0 1.4z" fill="none" stroke="currentColor" stroke-width="2" stroke-linecap="round" stroke-linejoin="round"/>
    <path d="m7.5 10.5 2 2" fill="none" stroke="currentColor" stroke-width="2" stroke-linecap="round"/>
    <path d="m10.5 7.5 2 2" fill="none" stroke="currentColor" stroke-width="2" stroke-linecap="round"/>
    <path d="m13.5 4.5 2 2" fill="none" stroke="currentColor" stroke-width="2" stroke-linecap="round"/>
    <path d="m4.5 13.5 2 2" fill="none" stroke="currentColor" stroke-width="2" stroke-linecap="round"/>
  </symbol>

  <symbol id="icon-commentDots" viewBox="0 0 24 24">
    <path d="M21 11.5a8.38 8.38 0 0 1 -.9 3.8 8.5 8.5 0 0 1 -7.6 4.7 8.38 8.38 0 0 1 -3.8-.9L3 21l1.9-5.7a8.38 8.38 0 0 1 -.9-3.8 8.5 8.5 0 0 1 4.7-7.6 8.38 8.38 0 0 1 3.8-.9h.5a8.48 8.48 0 0 1 8 8v.5z" fill="none" stroke="currentColor" stroke-width="2" stroke-linecap="round" stroke-linejoin="round"/>
  </symbol>

  <symbol id="icon-halfCircle" viewBox="0 0 24 24">
    <circle cx="12" cy="12" r="9" fill="none" stroke="currentColor" stroke-width="2"/>
    <path d="M12 3a9 9 0 0 1 0 18z" fill="currentColor"/>
  </symbol>

  <symbol id="icon-square" viewBox="0 0 24 24">
    <rect x="5" y="5" width="14" height="14" fill="currentColor"/>
  </symbol>

  <!-- TOC return / enter glyph — carriage-return arrow indicating "this
       anchor jumps to the heading". Portal-specific; CD doesn't ship one. -->
  <symbol id="icon-return" viewBox="0 0 24 24">
    <polyline points="9 10 4 15 9 20" fill="none" stroke="currentColor" stroke-width="2" stroke-linecap="round" stroke-linejoin="round"/>
    <path d="M20 4v7a4 4 0 0 1 -4 4H4" fill="none" stroke="currentColor" stroke-width="2" stroke-linecap="round" stroke-linejoin="round"/>
  </symbol>

</svg>
