<svg width="516" height="516" viewBox="0 0 516 516" fill="none" xmlns="http://www.w3.org/2000/svg">
<g clip-path="url(#clip0_187_2337)">
<rect width="516" height="516" fill="#26065D"/>
<mask id="mask0_187_2337" style="mask-type:alpha" maskUnits="userSpaceOnUse" x="98" y="63" width="320" height="691">
<path fill-rule="evenodd" clip-rule="evenodd" d="M134.177 63.6558C114.456 63.6558 98.4697 79.6423 98.4697 99.3626V718.281C98.4697 738.002 114.456 753.988 134.177 753.988H381.574C401.294 753.988 417.281 738.002 417.281 718.281V99.3626C417.281 79.6423 401.294 63.6558 381.574 63.6558H327.943C324.613 63.6558 317.812 63.6558 317.812 63.6558C317.812 63.6558 314.958 63.6558 299.533 63.6558H225.994C210.57 63.6558 203.465 63.6558 203.465 63.6558C203.465 63.6558 191.138 63.6558 187.808 63.6558H134.177Z" fill="#C4C4C4"/>
</mask>
<g mask="url(#mask0_187_2337)">
<rect x="-22.5972" y="-42.5464" width="578.764" height="870.284" fill="white"/>
<circle cx="239.445" cy="464.578" r="2.10637" fill="#908DA4"/>
<circle cx="248.926" cy="464.578" r="2.10637" fill="#48455E"/>
<circle cx="267.354" cy="464.578" r="2.10637" fill="#BCBBC8"/>
<circle cx="257.876" cy="464.578" r="2.10637" fill="#908DA4"/>
<circle cx="276.308" cy="464.578" r="2.10637" fill="#D9D9E0"/>
<g filter="url(#filter0_d_187_2337)">
<g clip-path="url(#clip1_187_2337)">
<path d="M98.3184 105.97H417.434V160.432H98.3184V105.97Z" fill="white"/>
<g clip-path="url(#clip2_187_2337)">
<path d="M310.116 129.022V136.136H307.489V129.492C307.489 127.874 306.789 126.97 305.425 126.97C304.061 126.97 303.161 127.919 302.906 129.51C302.833 129.89 302.815 130.478 302.815 131.716V136.127H300.188V124.828H302.515C302.524 124.927 302.579 125.94 302.579 126.003C302.579 126.084 302.679 126.13 302.742 126.075C303.706 125.316 304.77 124.611 306.252 124.611C308.689 124.611 310.116 126.247 310.116 129.022Z" fill="black"/>
<path d="M295.95 124.838L295.869 126.131C295.859 126.212 295.759 126.258 295.705 126.203C295.387 125.905 294.214 124.621 292.222 124.621C289.367 124.621 287.267 127.071 287.267 130.398C287.267 133.77 289.349 136.228 292.222 136.228C294.141 136.228 295.314 134.99 295.532 134.719C295.596 134.646 295.714 134.692 295.714 134.782C295.687 135.126 295.641 135.984 295.35 136.717C294.987 137.639 294.168 138.497 292.523 138.497C291.168 138.497 289.968 137.982 288.831 136.879L287.458 138.75C288.704 140.152 290.668 140.938 292.804 140.938C296.241 140.938 298.305 138.597 298.305 134.773V124.838H295.95ZM292.786 133.86C291.086 133.86 289.886 132.396 289.886 130.398C289.886 128.4 291.086 126.972 292.786 126.972C294.487 126.972 295.687 128.391 295.687 130.398C295.678 132.405 294.477 133.86 292.786 133.86Z" fill="black"/>
<path d="M281.775 132.784C281.775 134.926 279.965 136.364 277.31 136.364C275.228 136.364 273.373 135.559 272.264 134.411L273.128 132.368C273.964 133.118 275.31 134.194 277.229 134.194C278.565 134.194 279.338 133.607 279.338 132.865C279.338 132.007 278.274 131.781 277.001 131.536C275.192 131.157 272.792 130.542 272.792 128.092C272.792 126.04 274.465 124.63 276.938 124.63C278.838 124.63 280.475 125.353 281.602 126.293L280.311 128.092C279.22 127.234 278.074 126.809 276.938 126.809C275.801 126.809 275.237 127.279 275.237 127.957C275.237 128.906 276.465 129.15 277.365 129.331C279.629 129.765 281.775 130.443 281.775 132.784Z" fill="black"/>
<path d="M243.35 124.611C240.141 124.611 237.831 127.088 237.831 130.487C237.831 133.886 240.141 136.362 243.35 136.362C246.56 136.362 248.878 133.886 248.878 130.487C248.878 127.088 246.569 124.611 243.35 124.611ZM243.35 133.994C241.65 133.994 240.45 132.557 240.45 130.478C240.45 128.408 241.623 126.961 243.35 126.961C245.069 126.961 246.251 128.398 246.251 130.478C246.251 132.557 245.05 133.994 243.35 133.994Z" fill="black"/>
<path d="M249.806 130.487C249.806 127.133 252.116 124.611 255.198 124.611C257.644 124.611 259.435 125.831 260.272 128.127L257.944 129.004C257.307 127.585 256.471 126.979 255.207 126.979C253.625 126.979 252.443 128.462 252.443 130.496C252.443 132.521 253.616 134.012 255.207 134.012C256.48 134.012 257.307 133.406 257.944 131.987L260.272 132.864C259.435 135.16 257.644 136.381 255.198 136.381C252.116 136.362 249.806 133.84 249.806 130.487Z" fill="black"/>
<path d="M235.758 119.585C235.713 119.585 235.658 119.594 235.613 119.622L233.903 120.526C233.867 120.544 233.849 120.58 233.849 120.616V125.995C233.849 126.085 233.74 126.121 233.676 126.067C233.421 125.85 232.83 125.299 232.012 124.919C231.585 124.72 230.957 124.612 230.385 124.612C227.511 124.612 225.429 127.088 225.429 130.487C225.429 133.886 227.511 136.363 230.385 136.363C231.894 136.363 233.03 135.577 233.722 134.872C233.767 134.826 233.794 134.799 233.84 134.754C233.903 134.691 234.012 134.727 234.012 134.817L234.103 136.137H236.477V119.658C236.477 119.622 236.449 119.585 236.404 119.585H235.758ZM230.948 133.995C229.23 133.995 228.048 132.557 228.048 130.478C228.048 128.399 229.257 126.971 230.948 126.971C232.649 126.971 233.849 128.408 233.849 130.487C233.849 132.557 232.676 133.995 230.948 133.995Z" fill="black"/>
<path d="M284.867 124.875L283.221 125.742C283.185 125.76 283.167 125.797 283.167 125.833V136.138H285.794V124.902C285.794 124.866 285.767 124.829 285.721 124.829H285.012C284.958 124.838 284.912 124.847 284.867 124.875Z" fill="black"/>
<path d="M284.476 123.001C285.349 123.001 286.058 122.296 286.058 121.428C286.058 120.561 285.349 119.855 284.476 119.855C283.603 119.855 282.894 120.561 282.894 121.428C282.894 122.296 283.603 123.001 284.476 123.001Z" fill="black"/>
<path d="M271.319 124.829V130.967C271.319 135.623 268.7 136.355 266.364 136.355C264.027 136.355 261.408 135.614 261.408 130.967V124.829H264.027V131.618C264.027 132.278 264.19 133.996 266.364 133.996C268.537 133.996 268.7 132.287 268.7 131.618V124.829H271.319Z" fill="black"/>
<path d="M311.616 134.979V135.142H311.244V136.127H311.062V135.142H310.689V134.979H311.616ZM312.917 136.127H312.735V135.223L312.38 135.901H312.28L311.926 135.232V136.127H311.744V134.979H311.98L312.326 135.639L312.671 134.979H312.908L312.917 136.127Z" fill="black"/>
<path d="M216.492 131.715V136.189C216.492 136.424 216.301 136.614 216.064 136.614H204.235C203.999 136.614 203.808 136.424 203.808 136.189V124.438C203.808 124.203 203.999 124.013 204.235 124.013H208.727V131.29C208.727 131.525 208.918 131.715 209.154 131.715H216.492Z" fill="#4C00FF"/>
<path d="M221.42 125.406C221.42 129.166 219.21 131.707 216.492 131.716V126.979C216.492 126.843 216.437 126.708 216.337 126.617L213.864 124.158C213.764 124.059 213.637 124.005 213.5 124.005H208.736V119.539C208.736 119.304 208.927 119.114 209.163 119.114H215.828C218.992 119.105 221.42 121.636 221.42 125.406Z" fill="#FF5252"/>
<path d="M216.337 126.608C216.437 126.707 216.492 126.834 216.492 126.969V131.706H209.163C208.927 131.706 208.736 131.516 208.736 131.281V124.004H213.5C213.637 124.004 213.773 124.059 213.864 124.158L216.337 126.608Z" fill="black"/>
</g>
</g>
</g>
<mask id="mask1_187_2337" style="mask-type:luminance" maskUnits="userSpaceOnUse" x="98" y="160" width="320" height="222">
<rect x="98.1724" y="160.2" width="319.15" height="220.856" fill="white"/>
</mask>
<g mask="url(#mask1_187_2337)">
<rect x="98.1724" y="159.765" width="320.521" height="221.73" fill="#26065D"/>
<path d="M417.322 161.413V381.056H98.1724L417.322 161.413Z" fill="#130032"/>
</g>
<rect x="176.781" y="219.712" width="157.452" height="103.212" rx="2.52765" fill="#CBC2FF"/>
<rect x="185.118" y="227.434" width="63.8232" height="86.7995" rx="0.526594" fill="#4C00FF"/>
<mask id="mask2_187_2337" style="mask-type:luminance" maskUnits="userSpaceOnUse" x="185" y="227" width="64" height="88">
<rect x="185.118" y="227.434" width="63.8232" height="86.7995" rx="0.526594" fill="white"/>
</mask>
<g mask="url(#mask2_187_2337)">
<circle cx="217.111" cy="314.745" r="27.061" fill="#CBC2FF"/>
<circle cx="217.113" cy="267.768" r="14.807" fill="#CBC2FF"/>
</g>
<rect x="258.403" y="240.25" width="40.0211" height="4.21275" rx="0.631913" fill="#4C00FF"/>
<rect x="258.403" y="280.798" width="59.5051" height="4.73934" rx="0.631913" fill="#4C00FF"/>
<rect x="258.403" y="249.729" width="40.0211" height="4.21275" rx="0.631913" fill="#4C00FF"/>
<rect x="258.403" y="258.682" width="20.5372" height="4.73934" rx="0.631913" fill="#4C00FF"/>
<rect x="258.403" y="290.276" width="59.5051" height="4.21275" rx="0.631913" fill="#4C00FF"/>
<rect x="258.403" y="299.754" width="10.0053" height="4.21275" rx="0.631913" fill="#4C00FF"/>
<circle cx="333.255" cy="228.351" r="18.7895" fill="#4C00FF"/>
<path fill-rule="evenodd" clip-rule="evenodd" d="M328.781 232.627C328.782 232.627 328.782 232.628 328.783 232.628L330.669 234.525L330.67 234.526C330.868 234.725 331.189 234.725 331.387 234.526L333.645 232.256C333.653 232.247 333.661 232.238 333.669 232.229L341.071 224.786C341.267 224.588 341.267 224.27 341.071 224.073L339.184 222.175C338.986 221.977 338.665 221.977 338.467 222.175L331.399 229.284L328.416 226.284C328.219 226.086 327.897 226.086 327.699 226.284L325.441 228.555C325.245 228.752 325.245 229.071 325.441 229.268L328.781 232.627Z" fill="white"/>
</g>
<path opacity="0.35" d="M373.25 82.1319C373.25 80.5626 374.522 79.2905 376.091 79.2905H390.001C391.57 79.2905 392.842 80.5627 392.842 82.1319V86.2231C392.842 87.7923 391.57 89.0644 390.001 89.0644H376.091C374.522 89.0644 373.25 87.7923 373.25 86.2231V82.1319Z" stroke="black" stroke-width="0.86332"/>
<path opacity="0.4" d="M394.093 82.9492V86.4025C394.788 86.11 395.239 85.4297 395.239 84.6759C395.239 83.9221 394.788 83.2417 394.093 82.9492Z" fill="black"/>
<path d="M374.454 82.1309C374.454 81.2271 375.187 80.4944 376.091 80.4944H390.001C390.905 80.4944 391.637 81.2271 391.637 82.1309V86.2221C391.637 87.1259 390.905 87.8586 390.001 87.8586H376.091C375.187 87.8586 374.454 87.1259 374.454 86.2221V82.1309Z" fill="black"/>
<path fill-rule="evenodd" clip-rule="evenodd" d="M360.135 81.793C362.153 81.7931 364.094 82.5847 365.557 84.0042C365.667 84.1137 365.843 84.1124 365.951 84.0011L367.004 82.9164C367.059 82.8599 367.09 82.7835 367.089 82.7039C367.089 82.6244 367.057 82.5483 367.002 82.4925C363.163 78.7369 357.106 78.7369 353.267 82.4925C353.211 82.5482 353.18 82.6243 353.179 82.7039C353.179 82.7834 353.209 82.8599 353.264 82.9164L354.317 84.0011C354.426 84.1125 354.602 84.1139 354.712 84.0042C356.175 82.5846 358.116 81.793 360.135 81.793ZM360.162 85.1371C361.271 85.137 362.34 85.5577 363.162 86.3175C363.274 86.4253 363.449 86.423 363.557 86.3122L364.609 85.2276C364.664 85.1707 364.695 85.0935 364.694 85.0133C364.693 84.9331 364.661 84.8566 364.604 84.8008C362.101 82.4242 358.225 82.4242 355.722 84.8008C355.665 84.8566 355.633 84.9331 355.632 85.0133C355.632 85.0936 355.663 85.1707 355.718 85.2276L356.769 86.3122C356.878 86.423 357.053 86.4253 357.164 86.3175C357.985 85.5582 359.054 85.1375 360.162 85.1371ZM362.302 87.3192C362.303 87.3996 362.272 87.4772 362.216 87.5335L360.397 89.4075C360.343 89.4626 360.271 89.4936 360.195 89.4936C360.119 89.4936 360.046 89.4626 359.993 89.4075L358.173 87.5335C358.117 87.4771 358.086 87.3996 358.088 87.3191C358.09 87.2387 358.124 87.1626 358.182 87.1086C359.344 86.1056 361.046 86.1056 362.207 87.1086C362.266 87.1626 362.3 87.2388 362.302 87.3192Z" fill="black"/>
<path d="M340.089 82.1305C340.089 81.6786 340.456 81.3123 340.907 81.3123H341.726C342.178 81.3123 342.544 81.6786 342.544 82.1305V88.6765C342.544 89.1284 342.178 89.4947 341.726 89.4947H340.907C340.456 89.4947 340.089 89.1284 340.089 88.6765V82.1305Z" fill="black"/>
<path d="M344.18 80.494C344.18 80.0421 344.547 79.6758 344.999 79.6758H345.817C346.269 79.6758 346.635 80.0421 346.635 80.494V88.6765C346.635 89.1284 346.269 89.4947 345.817 89.4947H344.999C344.547 89.4947 344.18 89.1284 344.18 88.6765V80.494Z" fill="black"/>
<path d="M335.998 84.9944C335.998 84.5425 336.364 84.1761 336.816 84.1761H337.634C338.086 84.1761 338.453 84.5425 338.453 84.9944V88.6765C338.453 89.1284 338.086 89.4947 337.634 89.4947H336.816C336.364 89.4947 335.998 89.1284 335.998 88.6765V84.9944Z" fill="black"/>
<path d="M331.907 87.04C331.907 86.5881 332.273 86.2217 332.725 86.2217H333.543C333.995 86.2217 334.361 86.5881 334.361 87.04V88.6765C334.361 89.1284 333.995 89.4947 333.543 89.4947H332.725C332.273 89.4947 331.907 89.1284 331.907 88.6765V87.04Z" fill="black"/>
<path d="M127.691 78.0436C128.197 78.047 128.689 78.1366 129.168 78.3122C129.65 78.4844 130.084 78.7668 130.47 79.1595C130.856 79.5487 131.162 80.0704 131.39 80.7248C131.617 81.3792 131.731 82.1886 131.731 83.1529C131.734 84.0622 131.638 84.875 131.441 85.5914C131.248 86.3043 130.971 86.907 130.61 87.3995C130.248 87.892 129.812 88.2674 129.302 88.5257C128.793 88.7841 128.219 88.9132 127.582 88.9132C126.914 88.9132 126.322 88.7823 125.805 88.5206C125.292 88.2588 124.877 87.9006 124.56 87.446C124.243 86.9914 124.048 86.4713 123.976 85.8858H125.862C125.958 86.306 126.155 86.6401 126.451 86.8881C126.75 87.1326 127.128 87.2549 127.582 87.2549C128.316 87.2549 128.881 86.9363 129.277 86.2991C129.673 85.662 129.871 84.7768 129.871 83.6437H129.798C129.63 83.9468 129.411 84.2085 129.142 84.429C128.874 84.6459 128.569 84.813 128.228 84.9301C127.89 85.0472 127.532 85.1057 127.153 85.1057C126.533 85.1057 125.975 84.9576 125.48 84.6614C124.987 84.3653 124.596 83.9588 124.307 83.4422C124.021 82.9256 123.876 82.3349 123.873 81.6702C123.873 80.9814 124.031 80.3632 124.348 79.8156C124.668 79.2645 125.114 78.8306 125.686 78.5137C126.258 78.1934 126.926 78.0367 127.691 78.0436ZM127.696 79.5934C127.324 79.5934 126.988 79.6847 126.688 79.8672C126.392 80.0463 126.158 80.2909 125.986 80.6008C125.817 80.9074 125.733 81.2501 125.733 81.6289C125.736 82.0043 125.82 82.3453 125.986 82.6518C126.155 82.9583 126.384 83.2011 126.673 83.3802C126.966 83.5593 127.3 83.6489 127.675 83.6489C127.954 83.6489 128.214 83.5955 128.455 83.4887C128.696 83.382 128.906 83.2339 129.085 83.0444C129.268 82.8516 129.409 82.6329 129.509 82.3883C129.612 82.1438 129.662 81.8855 129.659 81.6134C129.659 81.2518 129.573 80.9177 129.401 80.6112C129.232 80.3046 128.999 80.0584 128.703 79.8724C128.41 79.6864 128.075 79.5934 127.696 79.5934ZM134.29 87.4977C133.976 87.4977 133.708 87.3875 133.484 87.167C133.26 86.9432 133.15 86.6745 133.153 86.3611C133.15 86.0511 133.26 85.786 133.484 85.5655C133.708 85.3451 133.976 85.2349 134.29 85.2349C134.593 85.2349 134.856 85.3451 135.08 85.5655C135.308 85.786 135.423 86.0511 135.426 86.3611C135.423 86.5712 135.368 86.7624 135.261 86.9346C135.158 87.1068 135.02 87.2445 134.848 87.3479C134.679 87.4477 134.493 87.4977 134.29 87.4977ZM134.29 82.254C133.976 82.254 133.708 82.1438 133.484 81.9234C133.26 81.6995 133.15 81.4309 133.153 81.1175C133.15 80.8075 133.26 80.5423 133.484 80.3219C133.708 80.098 133.976 79.9861 134.29 79.9861C134.593 79.9861 134.856 80.098 135.08 80.3219C135.308 80.5423 135.423 80.8075 135.426 81.1175C135.423 81.3241 135.368 81.5135 135.261 81.6857C135.158 81.8579 135.02 81.9957 134.848 82.099C134.679 82.2023 134.493 82.254 134.29 82.254ZM136.812 86.8054V85.2814L141.301 78.1882H142.572V80.358H141.797L138.775 85.1471V85.2297H145.041V86.8054H136.812ZM141.859 88.7686V86.3405L141.88 85.6585V78.1882H143.688V88.7686H141.859ZM150.519 78.1882V88.7686H148.603V80.0532H148.541L146.066 81.6341V79.8776L148.696 78.1882H150.519Z" fill="black"/>
<path d="M133.803 756.265C107.808 756.265 86.7347 735.192 86.7347 709.197L86.7348 98.8029C86.7348 72.8079 107.808 51.7347 133.803 51.7347L381.711 51.7348C407.706 51.7348 428.779 72.8079 428.779 98.803L428.779 709.197C428.779 735.192 407.706 756.265 381.711 756.265L133.803 756.265Z" stroke="url(#paint0_linear_187_2337)" stroke-width="3.46949"/>
<rect x="98.4146" y="380.897" width="318.973" height="50.6779" fill="white"/>
<path d="M153.076 409.899H156.004L150.485 418.219V424.959H147.915V418.261L142.375 409.899H145.303L149.2 416.049L153.076 409.899ZM158.86 425.17C155.869 425.17 153.721 422.874 153.721 419.672C153.721 416.492 155.869 414.175 158.86 414.175C161.851 414.175 164 416.492 164 419.672C164 422.874 161.851 425.17 158.86 425.17ZM158.86 422.958C160.44 422.958 161.557 421.61 161.557 419.672C161.557 417.734 160.461 416.386 158.86 416.386C157.26 416.386 156.164 417.734 156.164 419.672C156.164 421.61 157.281 422.958 158.86 422.958ZM172.599 418.514V414.385H175.042V424.959H172.872L172.788 423.232C172.177 424.412 170.829 425.17 169.397 425.17C167.143 425.17 165.816 423.632 165.816 421.041V414.385H168.259V420.599C168.259 422.116 168.912 422.958 170.176 422.958C171.44 422.958 172.283 422.073 172.514 420.578C172.577 420.22 172.599 419.672 172.599 418.514ZM179.797 424.959H177.353V414.385H179.544L179.649 416.365H179.67C180.092 414.996 181.229 414.154 182.64 414.154C182.956 414.154 183.251 414.175 183.546 414.259L183.399 416.555C182.998 416.449 182.64 416.386 182.261 416.386C180.976 416.386 180.134 417.292 179.881 418.977C179.818 419.356 179.797 419.883 179.797 420.768V424.959ZM192.319 424.959H189.75V409.899H192.319V424.959ZM200.446 409.899C204.659 409.899 207.65 413.037 207.65 417.439C207.65 421.821 204.659 424.959 200.446 424.959H194.97V409.899H200.446ZM197.539 422.579H200.446C203.205 422.579 205.08 420.494 205.08 417.439C205.08 414.364 203.205 412.279 200.446 412.279H197.539V422.579ZM220.144 414.175C222.398 414.175 223.725 415.712 223.725 418.303V424.959H221.281V418.745C221.281 417.229 220.628 416.386 219.365 416.386C218.101 416.386 217.258 417.271 217.026 418.766C216.963 419.125 216.942 419.672 216.942 420.831V424.959H214.499V409.477H216.942V415.775C217.637 414.785 218.838 414.175 220.144 414.175ZM233.368 415.754V414.385H235.812V424.959H233.6L233.495 423.422C232.694 424.517 231.515 425.17 230.146 425.17C227.47 425.17 225.533 422.853 225.533 419.651C225.533 416.471 227.47 414.175 230.146 414.175C231.451 414.175 232.568 414.764 233.368 415.754ZM230.672 422.958C232.252 422.958 233.368 421.589 233.368 419.651C233.368 417.755 232.252 416.386 230.672 416.386C229.092 416.386 227.976 417.755 227.976 419.651C227.976 421.589 229.092 422.958 230.672 422.958ZM242.003 425.17C240.065 425.17 238.338 424.412 237.305 423.337L238.506 421.715C239.454 422.621 240.676 423.127 241.918 423.127C243.161 423.127 243.877 422.579 243.877 421.884C243.877 421.083 242.887 420.873 241.708 420.641C240.023 420.283 237.79 419.714 237.79 417.418C237.79 415.502 239.349 414.175 241.645 414.175C243.414 414.175 244.93 414.849 245.984 415.733L244.783 417.418C243.772 416.618 242.698 416.218 241.645 416.218C240.612 416.218 240.065 416.66 240.065 417.292C240.065 418.177 241.202 418.408 242.045 418.577C244.151 418.998 246.152 419.63 246.152 421.821C246.152 423.822 244.467 425.17 242.003 425.17ZM258.447 414.175C261.122 414.175 263.06 416.492 263.06 419.672C263.06 422.853 261.122 425.17 258.447 425.17C257.078 425.17 255.898 424.517 255.098 423.443L254.992 424.959H252.78V409.477H255.224V415.754C256.024 414.764 257.141 414.175 258.447 414.175ZM257.92 422.958C259.521 422.958 260.616 421.61 260.616 419.672C260.616 417.734 259.521 416.386 257.92 416.386C256.34 416.386 255.224 417.734 255.224 419.672C255.224 421.61 256.319 422.958 257.92 422.958ZM269.756 425.17C266.786 425.17 264.617 422.874 264.617 419.672C264.617 416.449 266.702 414.175 269.672 414.175C272.579 414.175 274.706 416.407 274.706 419.483C274.706 419.799 274.664 420.157 274.622 420.473H267.102C267.355 422.052 268.366 423.042 269.756 423.042C270.894 423.042 271.715 422.579 272.452 421.505L274.369 422.558C273.421 424.243 271.799 425.17 269.756 425.17ZM267.123 418.745H272.115C271.947 417.25 270.999 416.302 269.672 416.302C268.303 416.302 267.355 417.229 267.123 418.745ZM281.414 425.17C278.444 425.17 276.275 422.874 276.275 419.672C276.275 416.449 278.36 414.175 281.33 414.175C284.237 414.175 286.364 416.407 286.364 419.483C286.364 419.799 286.322 420.157 286.28 420.473H278.76C279.013 422.052 280.024 423.042 281.414 423.042C282.552 423.042 283.373 422.579 284.111 421.505L286.027 422.558C285.079 424.243 283.458 425.17 281.414 425.17ZM278.781 418.745H283.773C283.605 417.25 282.657 416.302 281.33 416.302C279.961 416.302 279.013 417.229 278.781 418.745ZM293.812 414.175C296.066 414.175 297.393 415.712 297.393 418.303V424.959H294.949V418.745C294.949 417.229 294.296 416.386 293.033 416.386C291.769 416.386 290.926 417.271 290.694 418.766C290.631 419.125 290.61 419.672 290.61 420.831V424.959H288.167V414.385H290.336L290.421 416.112C291.031 414.933 292.38 414.175 293.812 414.175ZM307.903 422.263L310.599 414.385H313.147L309.187 424.959H306.618L302.637 414.385H305.206L307.903 422.263ZM318.709 425.17C315.739 425.17 313.569 422.874 313.569 419.672C313.569 416.449 315.654 414.175 318.624 414.175C321.531 414.175 323.659 416.407 323.659 419.483C323.659 419.799 323.617 420.157 323.574 420.473H316.055C316.307 422.052 317.319 423.042 318.709 423.042C319.846 423.042 320.668 422.579 321.405 421.505L323.322 422.558C322.374 424.243 320.752 425.17 318.709 425.17ZM316.076 418.745H321.068C320.899 417.25 319.951 416.302 318.624 416.302C317.255 416.302 316.307 417.229 316.076 418.745ZM327.905 424.959H325.461V414.385H327.652L327.757 416.365H327.778C328.199 414.996 329.337 414.154 330.748 414.154C331.064 414.154 331.359 414.175 331.654 414.259L331.506 416.555C331.106 416.449 330.748 416.386 330.369 416.386C329.084 416.386 328.242 417.292 327.989 418.977C327.926 419.356 327.905 419.883 327.905 420.768V424.959ZM335.779 412.468H333.251V409.772H335.779V412.468ZM335.737 424.959H333.293V414.385H335.737V424.959ZM341.516 424.959H339.073V416.597H337.388V414.385H339.073V413.353C339.073 410.552 340.316 409.14 342.843 409.14C343.517 409.14 344.212 409.267 344.823 409.477L344.528 411.626C344.002 411.457 343.559 411.373 343.138 411.373C342.064 411.373 341.516 412.026 341.516 413.311V414.385H344.275V416.597H341.516V424.959ZM348.678 412.468H346.15V409.772H348.678V412.468ZM348.636 424.959H346.192V414.385H348.636V424.959ZM355.571 425.17C352.601 425.17 350.432 422.874 350.432 419.672C350.432 416.449 352.517 414.175 355.487 414.175C358.394 414.175 360.521 416.407 360.521 419.483C360.521 419.799 360.479 420.157 360.437 420.473H352.917C353.17 422.052 354.181 423.042 355.571 423.042C356.709 423.042 357.53 422.579 358.267 421.505L360.184 422.558C359.236 424.243 357.614 425.17 355.571 425.17ZM352.938 418.745H357.93C357.762 417.25 356.814 416.302 355.487 416.302C354.118 416.302 353.17 417.229 352.938 418.745ZM369.926 415.754V409.477H372.369V424.959H370.157L370.052 423.443C369.252 424.517 368.072 425.17 366.703 425.17C364.028 425.17 362.09 422.853 362.09 419.672C362.09 416.492 364.028 414.175 366.703 414.175C368.009 414.175 369.125 414.764 369.926 415.754ZM367.229 422.958C368.83 422.958 369.926 421.61 369.926 419.672C369.926 417.734 368.809 416.386 367.229 416.386C365.629 416.386 364.533 417.734 364.533 419.672C364.533 421.61 365.629 422.958 367.229 422.958Z" fill="#1E1E1E"/>
</g>
<defs>
<filter id="filter0_d_187_2337" x="98.3184" y="105.97" width="319.116" height="55.3134" filterUnits="userSpaceOnUse" color-interpolation-filters="sRGB">
<feFlood flood-opacity="0" result="BackgroundImageFix"/>
<feColorMatrix in="SourceAlpha" type="matrix" values="0 0 0 0 0 0 0 0 0 0 0 0 0 0 0 0 0 0 127 0" result="hardAlpha"/>
<feOffset dy="0.850975"/>
<feColorMatrix type="matrix" values="0 0 0 0 0 0 0 0 0 0 0 0 0 0 0 0 0 0 0.08 0"/>
<feBlend mode="normal" in2="BackgroundImageFix" result="effect1_dropShadow_187_2337"/>
<feBlend mode="normal" in="SourceGraphic" in2="effect1_dropShadow_187_2337" result="shape"/>
</filter>
<linearGradient id="paint0_linear_187_2337" x1="268.777" y1="49.9999" x2="247.334" y2="945.047" gradientUnits="userSpaceOnUse">
<stop stop-color="#FF5252"/>
<stop offset="1" stop-color="#4C00FF"/>
</linearGradient>
<clipPath id="clip0_187_2337">
<rect width="516" height="516" fill="white"/>
</clipPath>
<clipPath id="clip1_187_2337">
<rect width="319.116" height="54.4624" fill="white" transform="translate(98.3184 105.97)"/>
</clipPath>
<clipPath id="clip2_187_2337">
<rect width="109.11" height="21.8219" fill="white" transform="translate(203.808 119.105)"/>
</clipPath>
</defs>
</svg>
