<?xml version="1.0" encoding="UTF-8"?><svg width="309px" height="55px" viewBox="0 0 309 55" version="1.1"
					xmlns="http://www.w3.org/2000/svg" xmlns:xlink="http://www.w3.org/1999/xlink">
					<!-- Generator: Sketch 50 (54983) - http://www.bohemiancoding.com/sketch -->
					<title>SwissSign</title>
					<desc>Created with Sketch.</desc>
					<defs>
						<polygon id="path-1" points="0 54.879396 308.823564 54.879396 308.823564 0 0 0" />
					</defs>
					<g id="Patterns" stroke="none" stroke-width="1" fill="none" fill-rule="evenodd">
						<g id="OSW_Pattern-/-Assets" transform="translate(-895.000000, -148.000000)">
							<g id="SwissSign" transform="translate(895.000000, 148.000000)">
								<path d="M156.613223,22.6091956 C155.741478,20.9674404 154.011742,19.4032317 151.522193,19.4032317 C149.345676,19.4032317 147.496893,20.3660406 147.496893,22.052379 C147.496893,23.6336622 148.886326,24.2623338 150.398837,24.5371849 L154.854793,25.4822079 C160.370312,26.6067497 163.46885,29.7975364 163.46885,34.0106553 C163.46885,38.8951319 159.103483,43.8927267 151.254219,43.8927267 C144.24682,43.8927267 140.97659,40.371597 139.352858,37.8637881 L145.623447,33.8586454 C146.461518,35.7280598 148.49978,37.360092 151.144184,37.360092 C153.720765,37.360092 155.360623,36.0010137 155.360623,34.6993246 C155.360623,33.3262547 154.411569,32.5588533 152.043201,32.0468572 L148.014344,31.1836492 C141.992757,29.8238595 139.719484,26.3928449 139.719484,22.3668334 C139.719484,17.1586538 144.517166,13.0477444 151.471444,13.0477444 C157.54378,13.0477444 161.115422,16.088181 162.891638,18.6185187 L156.613223,22.6091956 Z"
								id="Fill-1" fill="#000000" />
								<path d="M183.756158,22.6091956 C182.884413,20.9674404 181.154677,19.4032317 178.665128,19.4032317 C176.488611,19.4032317 174.639828,20.3660406 174.639828,22.052379 C174.639828,23.6336622 176.029261,24.2623338 177.541772,24.5371849 L181.997727,25.4822079 C187.513247,26.6067497 190.611784,29.7975364 190.611784,34.0106553 C190.611784,38.8951319 186.246418,43.8927267 178.397154,43.8927267 C171.389755,43.8927267 168.119525,40.371597 166.495793,37.8637881 L172.766382,33.8586454 C173.604453,35.7280598 175.642714,37.360092 178.287119,37.360092 C180.8637,37.360092 182.503558,36.0010137 182.503558,34.6993246 C182.503558,33.3262547 181.554503,32.5588533 179.186136,32.0468572 L175.157278,31.1836492 C169.135691,29.8238595 166.862419,26.3928449 166.862419,22.3668334 C166.862419,17.1586538 171.6601,13.0477444 178.614379,13.0477444 C184.686715,13.0477444 188.258357,16.088181 190.034573,18.6185187 L183.756158,22.6091956 Z"
								id="Fill-3" fill="#000000" />
								<path d="M59.6859705,0.278076285 C67.8579889,0.278076285 72.6046842,5.12935257 74.6944064,8.87790437 L67.3597471,13.2390018 C66.3827095,11.1345767 63.9635929,7.82664037 59.6136412,7.82664037 C55.7142652,7.82664037 53.0321546,9.96521443 53.0321546,12.5923073 C53.0321546,15.0657302 54.5735975,16.7869289 57.7385353,17.3681715 L63.4160249,18.5332651 C71.6890672,20.1944662 75.6033833,24.2788153 75.6033833,30.7393579 C75.6033833,37.0903395 70.1009068,43.880988 59.5280318,43.880988 C51.8990756,43.880988 45.8153565,40.3091093 42.9003695,34.5898821 L50.2772406,30.1194608 C51.3064501,32.1878399 54.2045998,36.321041 59.4338853,36.321041 C63.6522214,36.321041 66.5456282,34.2396189 66.5456282,31.4647847 C66.5456282,28.9403756 64.7879091,27.2111139 61.3459858,26.5518507 L55.4095338,25.3597225 C48.316051,23.8827831 44.1671984,19.2556089 44.1671984,13.116635 C44.1671984,5.69731497 50.4999198,0.278076285 59.6859705,0.278076285"
								id="Fill-5" fill="#000000" />
								<path d="M210.836083,0.278076285 C219.008102,0.278076285 223.754797,5.12935257 225.844519,8.87790437 L218.50986,13.2390018 C217.532822,11.1345767 215.113706,7.82664037 210.763754,7.82664037 C206.864378,7.82664037 204.182267,9.96521443 204.182267,12.5923073 C204.182267,15.0657302 205.72371,16.7869289 208.888648,17.3681715 L214.566138,18.5332651 C222.83918,20.1944662 226.753496,24.2788153 226.753496,30.7393579 C226.753496,37.0903395 221.251019,43.880988 210.678145,43.880988 C203.049188,43.880988 197.234866,40.3091093 194.319879,34.5898821 L201.562052,30.1531354 C202.591024,32.2215145 205.354713,36.321041 210.583998,36.321041 C214.802334,36.321041 217.695741,34.2396189 217.695741,31.4647847 C217.695741,28.9403756 215.938022,27.2111139 212.495861,26.5518507 L206.559409,25.3597225 C199.466164,23.8827831 195.317311,19.2556089 195.317311,13.116635 C195.317311,5.69731497 201.649795,0.278076285 210.836083,0.278076285"
								id="Fill-7" fill="#000000" />
								<polygon id="Fill-9" fill="#000000" points="103.801898 13.8249873 108.971423 32.3386642 114.034233 13.8249873 122.293046 13.8249873 113.231971 43.1109781 105.44223 43.1109781 99.6381053 23.9008061 93.6179411 43.1109781 86.1194146 43.1109781 76.9402411 13.8249873 85.7316824 13.8249873 90.794255 32.2793779 96.022829 13.8249873" />
								<mask id="mask-2" fill="white">
									<use xlink:href="#path-1" />
								</mask>
								<g id="Clip-12" />
								<path d="M126.062514,43.1110729 L134.179752,43.1110729 L134.179752,13.8250821 L126.062514,13.8250821 L126.062514,43.1110729 Z M130.065997,0 C132.842017,0 135.095606,2.1988089 135.095606,4.91909977 C135.095606,7.63962778 132.842017,9.83819954 130.065997,9.83819954 C127.401198,9.83819954 125.15828,7.63962778 125.15828,4.91909977 C125.15828,2.1988089 127.401198,0 130.065997,0 L130.065997,0 Z"
								id="Fill-11" fill="#000000" mask="url(#mask-2)" />
								<path d="M232.444835,43.1110729 L240.562073,43.1110729 L240.562073,13.8250821 L232.444835,13.8250821 L232.444835,43.1110729 Z M236.448318,0 C239.224338,0 241.477927,2.1988089 241.477927,4.91909977 C241.477927,7.63962778 239.224338,9.83819954 236.448318,9.83819954 C233.783519,9.83819954 231.540601,7.63962778 231.540601,4.91909977 C231.540601,2.1988089 233.783519,0 236.448318,0 L236.448318,0 Z"
								id="Fill-13" fill="#000000" mask="url(#mask-2)" />
								<path d="M11.7194475,9.02789862 C11.7194475,12.26398 9.09591182,14.8875157 5.85983047,14.8875157 C2.62351197,14.8875157 -2.37145068e-05,12.26398 -2.37145068e-05,9.02789862 C-2.37145068e-05,5.79158012 2.62351197,3.16828158 5.85983047,3.16828158 C9.09591182,3.16828158 11.7194475,5.79158012 11.7194475,9.02789862"
								id="Fill-14" fill="#EB0000" mask="url(#mask-2)" />
								<path d="M11.7194475,34.5975419 C11.7194475,37.8338604 9.09591182,40.4573961 5.85983047,40.4573961 C2.62351197,40.4573961 -2.37145068e-05,37.8338604 -2.37145068e-05,34.5975419 C-2.37145068e-05,31.3614606 2.62351197,28.7379249 5.85983047,28.7379249 C9.09591182,28.7379249 11.7194475,31.3614606 11.7194475,34.5975419"
								id="Fill-15" fill="#EB0000" mask="url(#mask-2)" />
								<path d="M25.5697381,21.8127677 C25.5697381,25.048849 22.9462025,27.6723847 19.7101211,27.6723847 C16.4738026,27.6723847 13.8502669,25.048849 13.8502669,21.8127677 C13.8502669,18.5764492 16.4738026,15.9531507 19.7101211,15.9531507 C22.9462025,15.9531507 25.5697381,18.5764492 25.5697381,21.8127677"
								id="Fill-16" fill="#EB0000" mask="url(#mask-2)" />
								<path d="M267.406181,27.6246711 C267.406181,23.3228599 264.38519,20.5314256 260.599644,20.5314256 C256.724694,20.5314256 253.66244,23.1433411 253.66244,27.6246711 C253.66244,32.1060012 256.471423,34.7179167 260.599644,34.7179167 C264.701305,34.7179167 267.406181,31.9264823 267.406181,27.6246711 L267.406181,27.6246711 Z M251.223403,43.3711025 C253.012662,46.0970848 256.206058,47.7471401 259.113456,47.7471401 C263.962598,47.7471401 267.077972,45.0949098 267.077972,40.1362068 L267.077972,38.1363626 C266.013428,39.7328231 263.021606,41.8517141 258.94366,41.8517141 C251.227672,41.8517141 245.451767,35.6057878 245.451767,27.6246711 C245.451767,20.0578469 250.991238,13.2216665 258.94366,13.2216665 C263.643638,13.2216665 266.545582,15.8217249 267.373455,17.3591362 L267.373455,13.8211692 L275.291491,13.8211692 L275.291491,39.0906343 C275.291491,47.3672337 270.319271,54.8795146 259.410124,54.8795146 C253.605051,54.8795146 248.604373,52.1561408 245.732784,48.4597609 L251.223403,43.3711025 Z"
								id="Fill-17" fill="#000000" mask="url(#mask-2)" />
								<path d="M289.789046,43.0935242 L281.672756,43.0935242 L281.672756,13.8210507 L289.493326,13.8210507 L289.493326,17.2055848 C291.3727,14.5182571 294.723323,13.0538864 297.918378,13.0538864 C305.220548,13.0538864 308.82373,18.881726 308.82373,25.0581688 L308.82373,43.0935242 L300.707204,43.0935242 L300.707204,25.8943423 C300.707204,22.8173853 298.810043,20.5109125 295.467958,20.5109125 C292.421356,20.5109125 289.789046,23.0052041 289.789046,26.1556761 L289.789046,43.0935242 Z"
								id="Fill-18" fill="#000000" mask="url(#mask-2)" />
							</g>
						</g>
					</g>
				</svg>
